<mxfile host="app.diagrams.net" agent="Mozilla/5.0 (Windows NT 10.0; Win64; x64) AppleWebKit/537.36 (KHTML, like Gecko) Chrome/130.0.0.0 Safari/537.36 Edg/130.0.0.0" version="24.8.6">
  <diagram id="6a731a19-8d31-9384-78a2-239565b7b9f0" name="Page-1">
    <mxGraphModel dx="1994" dy="1201" grid="1" gridSize="10" guides="1" tooltips="1" connect="1" arrows="1" fold="1" page="1" pageScale="1" pageWidth="3300" pageHeight="2339" background="none" math="0" shadow="0">
      <root>
        <mxCell id="0" />
        <mxCell id="1" parent="0" />
        <mxCell id="k3MuvvShlIw28Lf7oo9o-144" value="Project&#xa;" style="strokeColor=#BAC8D3;fillColor=#23445D;fontSize=24;strokeWidth=2;fontFamily=Helvetica;html=1;fontColor=#FFFFFF;fontStyle=0;spacingBottom=8;spacingRight=0;spacingLeft=83;" vertex="1" parent="1">
          <mxGeometry x="20" y="20" width="2030" height="80" as="geometry" />
        </mxCell>
        <mxCell id="k3MuvvShlIw28Lf7oo9o-145" value="Lane 1" style="strokeColor=#BAC8D3;fillColor=#23445D;fontSize=24;strokeWidth=2;horizontal=0;fontFamily=Helvetica;html=1;fontColor=#FFFFFF;fontStyle=0" vertex="1" parent="1">
          <mxGeometry x="20" y="100" width="50" height="300" as="geometry" />
        </mxCell>
        <mxCell id="k3MuvvShlIw28Lf7oo9o-146" value="Lane 1.1" style="strokeColor=#BAC8D3;fillColor=#5d7f99;fontSize=19;strokeWidth=2;horizontal=0;fontFamily=Helvetica;html=1;labelBackgroundColor=none;fontColor=#FFFFFF;" vertex="1" parent="1">
          <mxGeometry x="70" y="100" width="40" height="100" as="geometry" />
        </mxCell>
        <mxCell id="k3MuvvShlIw28Lf7oo9o-147" value="v 1.0" style="strokeColor=#BAC8D3;fillColor=#5d7f99;fontSize=19;strokeWidth=2;fontFamily=Helvetica;html=1;labelBackgroundColor=none;fontColor=#FFFFFF;" vertex="1" parent="1">
          <mxGeometry x="20" y="20" width="90" height="80" as="geometry" />
        </mxCell>
        <mxCell id="k3MuvvShlIw28Lf7oo9o-148" value="Lane 1.2" style="strokeColor=#BAC8D3;fillColor=#5d7f99;fontSize=19;strokeWidth=2;horizontal=0;fontFamily=Helvetica;html=1;labelBackgroundColor=none;fontColor=#FFFFFF;" vertex="1" parent="1">
          <mxGeometry x="70" y="200" width="40" height="100" as="geometry" />
        </mxCell>
        <mxCell id="k3MuvvShlIw28Lf7oo9o-149" value="Lane 1.3" style="strokeColor=#BAC8D3;fillColor=#5d7f99;fontSize=19;strokeWidth=2;horizontal=0;fontFamily=Helvetica;html=1;labelBackgroundColor=none;fontColor=#FFFFFF;" vertex="1" parent="1">
          <mxGeometry x="70" y="300" width="40" height="100" as="geometry" />
        </mxCell>
        <mxCell id="k3MuvvShlIw28Lf7oo9o-150" value="Lane 2.2" style="strokeColor=#BAC8D3;fillColor=#5d7f99;fontSize=19;strokeWidth=2;horizontal=0;fontFamily=Helvetica;html=1;labelBackgroundColor=none;fontColor=#FFFFFF;" vertex="1" parent="1">
          <mxGeometry x="70" y="500" width="40" height="100" as="geometry" />
        </mxCell>
        <mxCell id="k3MuvvShlIw28Lf7oo9o-151" value="Lane 2.1" style="strokeColor=#BAC8D3;fillColor=#5d7f99;fontSize=19;strokeWidth=2;horizontal=0;fontFamily=Helvetica;html=1;labelBackgroundColor=none;fontColor=#FFFFFF;" vertex="1" parent="1">
          <mxGeometry x="70" y="400" width="40" height="100" as="geometry" />
        </mxCell>
        <mxCell id="k3MuvvShlIw28Lf7oo9o-152" value="Lane 2" style="strokeColor=#BAC8D3;fillColor=#23445D;fontSize=24;strokeWidth=2;horizontal=0;fontFamily=Helvetica;html=1;fontColor=#FFFFFF;fontStyle=0" vertex="1" parent="1">
          <mxGeometry x="20" y="400" width="50" height="200" as="geometry" />
        </mxCell>
        <mxCell id="k3MuvvShlIw28Lf7oo9o-153" value="Lane 3.2" style="strokeColor=#BAC8D3;fillColor=#5d7f99;fontSize=19;strokeWidth=2;horizontal=0;fontFamily=Helvetica;html=1;labelBackgroundColor=none;fontColor=#FFFFFF;" vertex="1" parent="1">
          <mxGeometry x="70" y="700" width="40" height="100" as="geometry" />
        </mxCell>
        <mxCell id="k3MuvvShlIw28Lf7oo9o-154" value="Lane 3.1" style="strokeColor=#BAC8D3;fillColor=#5d7f99;fontSize=19;strokeWidth=2;horizontal=0;fontFamily=Helvetica;html=1;labelBackgroundColor=none;fontColor=#FFFFFF;" vertex="1" parent="1">
          <mxGeometry x="70" y="600" width="40" height="100" as="geometry" />
        </mxCell>
        <mxCell id="k3MuvvShlIw28Lf7oo9o-155" value="Lane 3" style="strokeColor=#BAC8D3;fillColor=#23445D;fontSize=24;strokeWidth=2;horizontal=0;fontFamily=Helvetica;html=1;fontColor=#FFFFFF;fontStyle=0" vertex="1" parent="1">
          <mxGeometry x="20" y="600" width="50" height="200" as="geometry" />
        </mxCell>
        <mxCell id="k3MuvvShlIw28Lf7oo9o-156" value="" style="strokeColor=#FFFFFF;fillColor=#BAC8D3;fontSize=18;strokeWidth=2;fontFamily=Helvetica;html=1;opacity=60;" vertex="1" parent="1">
          <mxGeometry x="110" y="100" width="646.6666666666666" height="100" as="geometry" />
        </mxCell>
        <mxCell id="k3MuvvShlIw28Lf7oo9o-157" value="" style="strokeColor=#FFFFFF;fillColor=#BAC8D3;fontSize=18;strokeWidth=2;fontFamily=Helvetica;html=1;opacity=90;" vertex="1" parent="1">
          <mxGeometry x="110" y="200" width="646.6666666666666" height="100" as="geometry" />
        </mxCell>
        <mxCell id="k3MuvvShlIw28Lf7oo9o-158" value="" style="strokeColor=#FFFFFF;fillColor=#BAC8D3;fontSize=18;strokeWidth=2;fontFamily=Helvetica;html=1;opacity=60;" vertex="1" parent="1">
          <mxGeometry x="110" y="300" width="646.6666666666666" height="100" as="geometry" />
        </mxCell>
        <mxCell id="k3MuvvShlIw28Lf7oo9o-159" value="" style="strokeColor=#FFFFFF;fillColor=#BAC8D3;fontSize=18;strokeWidth=2;fontFamily=Helvetica;html=1;opacity=90;" vertex="1" parent="1">
          <mxGeometry x="110" y="400" width="646.6666666666666" height="100" as="geometry" />
        </mxCell>
        <mxCell id="k3MuvvShlIw28Lf7oo9o-160" value="" style="strokeColor=#FFFFFF;fillColor=#BAC8D3;fontSize=18;strokeWidth=2;fontFamily=Helvetica;html=1;opacity=60;" vertex="1" parent="1">
          <mxGeometry x="110" y="500" width="646.6666666666666" height="100" as="geometry" />
        </mxCell>
        <mxCell id="k3MuvvShlIw28Lf7oo9o-161" value="" style="strokeColor=#FFFFFF;fillColor=#BAC8D3;fontSize=18;strokeWidth=2;fontFamily=Helvetica;html=1;opacity=90;" vertex="1" parent="1">
          <mxGeometry x="110" y="600" width="646.6666666666666" height="100" as="geometry" />
        </mxCell>
        <mxCell id="k3MuvvShlIw28Lf7oo9o-162" value="" style="strokeColor=#FFFFFF;fillColor=#BAC8D3;fontSize=18;strokeWidth=2;fontFamily=Helvetica;html=1;opacity=60;" vertex="1" parent="1">
          <mxGeometry x="110" y="700" width="646.6666666666666" height="100" as="geometry" />
        </mxCell>
        <mxCell id="k3MuvvShlIw28Lf7oo9o-163" value="" style="strokeColor=#FFFFFF;fillColor=#BAC8D3;fontSize=18;strokeWidth=2;fontFamily=Helvetica;html=1;opacity=60;" vertex="1" parent="1">
          <mxGeometry x="756.6666666666666" y="100" width="647" height="100" as="geometry" />
        </mxCell>
        <mxCell id="k3MuvvShlIw28Lf7oo9o-164" value="" style="strokeColor=#FFFFFF;fillColor=#BAC8D3;fontSize=18;strokeWidth=2;fontFamily=Helvetica;html=1;opacity=90;" vertex="1" parent="1">
          <mxGeometry x="756.6666666666666" y="200" width="646.6666666666666" height="100" as="geometry" />
        </mxCell>
        <mxCell id="k3MuvvShlIw28Lf7oo9o-165" value="" style="strokeColor=#FFFFFF;fillColor=#BAC8D3;fontSize=18;strokeWidth=2;fontFamily=Helvetica;html=1;opacity=60;" vertex="1" parent="1">
          <mxGeometry x="756.6666666666666" y="300" width="646.6666666666666" height="100" as="geometry" />
        </mxCell>
        <mxCell id="k3MuvvShlIw28Lf7oo9o-166" value="" style="strokeColor=#FFFFFF;fillColor=#BAC8D3;fontSize=18;strokeWidth=2;fontFamily=Helvetica;html=1;opacity=90;" vertex="1" parent="1">
          <mxGeometry x="756.6666666666666" y="400" width="646.6666666666666" height="100" as="geometry" />
        </mxCell>
        <mxCell id="k3MuvvShlIw28Lf7oo9o-167" value="" style="strokeColor=#FFFFFF;fillColor=#BAC8D3;fontSize=18;strokeWidth=2;fontFamily=Helvetica;html=1;opacity=60;" vertex="1" parent="1">
          <mxGeometry x="756.6666666666666" y="500" width="646.6666666666666" height="100" as="geometry" />
        </mxCell>
        <mxCell id="k3MuvvShlIw28Lf7oo9o-168" value="" style="strokeColor=#FFFFFF;fillColor=#BAC8D3;fontSize=18;strokeWidth=2;fontFamily=Helvetica;html=1;opacity=90;" vertex="1" parent="1">
          <mxGeometry x="756.6666666666666" y="600" width="646.6666666666666" height="100" as="geometry" />
        </mxCell>
        <mxCell id="k3MuvvShlIw28Lf7oo9o-169" value="" style="strokeColor=#FFFFFF;fillColor=#BAC8D3;fontSize=18;strokeWidth=2;fontFamily=Helvetica;html=1;opacity=60;fontStyle=4" vertex="1" parent="1">
          <mxGeometry x="756.6666666666666" y="700" width="646.6666666666666" height="100" as="geometry" />
        </mxCell>
        <mxCell id="k3MuvvShlIw28Lf7oo9o-170" value="" style="strokeColor=#FFFFFF;fillColor=#BAC8D3;fontSize=18;strokeWidth=2;fontFamily=Helvetica;html=1;opacity=60;" vertex="1" parent="1">
          <mxGeometry x="1403.3333333333333" y="100" width="647" height="100" as="geometry" />
        </mxCell>
        <mxCell id="k3MuvvShlIw28Lf7oo9o-171" value="" style="strokeColor=#FFFFFF;fillColor=#BAC8D3;fontSize=18;strokeWidth=2;fontFamily=Helvetica;html=1;opacity=90;" vertex="1" parent="1">
          <mxGeometry x="1403.3333333333333" y="200" width="646.6666666666666" height="100" as="geometry" />
        </mxCell>
        <mxCell id="k3MuvvShlIw28Lf7oo9o-172" value="" style="strokeColor=#FFFFFF;fillColor=#BAC8D3;fontSize=18;strokeWidth=2;fontFamily=Helvetica;html=1;opacity=60;" vertex="1" parent="1">
          <mxGeometry x="1403.3333333333333" y="300" width="646.6666666666666" height="100" as="geometry" />
        </mxCell>
        <mxCell id="k3MuvvShlIw28Lf7oo9o-173" value="" style="strokeColor=#FFFFFF;fillColor=#BAC8D3;fontSize=18;strokeWidth=2;fontFamily=Helvetica;html=1;opacity=90;" vertex="1" parent="1">
          <mxGeometry x="1403.3333333333333" y="400" width="646.6666666666666" height="100" as="geometry" />
        </mxCell>
        <mxCell id="k3MuvvShlIw28Lf7oo9o-174" value="" style="strokeColor=#FFFFFF;fillColor=#BAC8D3;fontSize=18;strokeWidth=2;fontFamily=Helvetica;html=1;opacity=60;" vertex="1" parent="1">
          <mxGeometry x="1403.3333333333333" y="500" width="646.6666666666666" height="100" as="geometry" />
        </mxCell>
        <mxCell id="k3MuvvShlIw28Lf7oo9o-175" value="" style="strokeColor=#FFFFFF;fillColor=#BAC8D3;fontSize=18;strokeWidth=2;fontFamily=Helvetica;html=1;opacity=90;" vertex="1" parent="1">
          <mxGeometry x="1403.3333333333333" y="600" width="646.6666666666666" height="100" as="geometry" />
        </mxCell>
        <mxCell id="k3MuvvShlIw28Lf7oo9o-176" value="" style="strokeColor=#FFFFFF;fillColor=#BAC8D3;fontSize=18;strokeWidth=2;fontFamily=Helvetica;html=1;opacity=60;fontStyle=4" vertex="1" parent="1">
          <mxGeometry x="1403.3333333333333" y="700" width="646.6666666666666" height="100" as="geometry" />
        </mxCell>
        <mxCell id="k3MuvvShlIw28Lf7oo9o-177" style="edgeStyle=orthogonalEdgeStyle;rounded=1;jumpStyle=none;html=1;exitX=1;exitY=0.5;entryX=0;entryY=0.5;labelBackgroundColor=#ffffff;startArrow=none;startFill=0;endArrow=classic;jettySize=auto;orthogonalLoop=1;strokeColor=#0C343D;strokeWidth=3;fontFamily=Helvetica;fontSize=11;fontColor=#000000;" edge="1" parent="1" source="k3MuvvShlIw28Lf7oo9o-178" target="k3MuvvShlIw28Lf7oo9o-180">
          <mxGeometry relative="1" as="geometry">
            <Array as="points">
              <mxPoint x="288" y="150" />
              <mxPoint x="288" y="350" />
            </Array>
          </mxGeometry>
        </mxCell>
        <mxCell id="k3MuvvShlIw28Lf7oo9o-178" value="" style="rounded=1;fillColor=#23445D;strokeColor=none;strokeWidth=2;fontFamily=Helvetica;html=1;gradientColor=none;" vertex="1" parent="1">
          <mxGeometry x="136.39455782312928" y="125" width="127" height="50" as="geometry" />
        </mxCell>
        <mxCell id="k3MuvvShlIw28Lf7oo9o-179" value="" style="rounded=1;fillColor=#23445D;strokeColor=none;strokeWidth=2;fontFamily=Helvetica;html=1;gradientColor=none;" vertex="1" parent="1">
          <mxGeometry x="581.9047619047619" y="125" width="127" height="50" as="geometry" />
        </mxCell>
        <mxCell id="k3MuvvShlIw28Lf7oo9o-180" value="" style="rounded=1;fillColor=#23445D;strokeColor=none;strokeWidth=2;fontFamily=Helvetica;html=1;gradientColor=none;" vertex="1" parent="1">
          <mxGeometry x="344.3537414965986" y="325" width="127" height="50" as="geometry" />
        </mxCell>
        <mxCell id="k3MuvvShlIw28Lf7oo9o-181" value="" style="rounded=1;fillColor=#23445D;strokeColor=none;strokeWidth=2;fontFamily=Helvetica;html=1;gradientColor=none;" vertex="1" parent="1">
          <mxGeometry x="581.9047619047619" y="425" width="127" height="50" as="geometry" />
        </mxCell>
        <mxCell id="k3MuvvShlIw28Lf7oo9o-182" value="" style="rounded=1;fillColor=#23445D;strokeColor=none;strokeWidth=2;fontFamily=Helvetica;html=1;gradientColor=none;" vertex="1" parent="1">
          <mxGeometry x="581.9047619047619" y="525" width="127" height="50" as="geometry" />
        </mxCell>
        <mxCell id="k3MuvvShlIw28Lf7oo9o-183" value="" style="rounded=1;fillColor=#23445D;strokeColor=none;strokeWidth=2;fontFamily=Helvetica;html=1;gradientColor=none;" vertex="1" parent="1">
          <mxGeometry x="344.3537414965986" y="625" width="127" height="50" as="geometry" />
        </mxCell>
        <mxCell id="k3MuvvShlIw28Lf7oo9o-184" value="" style="rounded=1;fillColor=#23445D;strokeColor=none;strokeWidth=2;fontFamily=Helvetica;html=1;gradientColor=none;" vertex="1" parent="1">
          <mxGeometry x="344.3537414965986" y="525" width="127" height="50" as="geometry" />
        </mxCell>
        <mxCell id="k3MuvvShlIw28Lf7oo9o-185" value="" style="rounded=1;fillColor=#23445D;strokeColor=none;strokeWidth=2;fontFamily=Helvetica;html=1;gradientColor=none;" vertex="1" parent="1">
          <mxGeometry x="1027.4149659863945" y="225" width="127" height="50" as="geometry" />
        </mxCell>
        <mxCell id="k3MuvvShlIw28Lf7oo9o-186" value="" style="rounded=1;fillColor=#23445D;strokeColor=none;strokeWidth=2;fontFamily=Helvetica;html=1;gradientColor=none;" vertex="1" parent="1">
          <mxGeometry x="1238.5714285714284" y="125" width="127" height="50" as="geometry" />
        </mxCell>
        <mxCell id="k3MuvvShlIw28Lf7oo9o-187" value="" style="rounded=1;fillColor=#23445D;strokeColor=none;strokeWidth=2;gradientColor=none;fontFamily=Helvetica;html=1;" vertex="1" parent="1">
          <mxGeometry x="1895.2380952380954" y="625" width="127" height="50" as="geometry" />
        </mxCell>
        <mxCell id="k3MuvvShlIw28Lf7oo9o-188" value="" style="rounded=1;fillColor=#23445D;strokeColor=none;strokeWidth=2;fontFamily=Helvetica;html=1;gradientColor=none;" vertex="1" parent="1">
          <mxGeometry x="1027.4149659863945" y="425" width="127" height="50" as="geometry" />
        </mxCell>
        <mxCell id="k3MuvvShlIw28Lf7oo9o-189" value="" style="rounded=1;fillColor=#23445D;strokeColor=none;strokeWidth=2;fontFamily=Helvetica;html=1;gradientColor=none;" vertex="1" parent="1">
          <mxGeometry x="1027.4149659863945" y="725" width="127" height="50" as="geometry" />
        </mxCell>
        <mxCell id="k3MuvvShlIw28Lf7oo9o-190" value="" style="rounded=1;fillColor=#23445D;strokeColor=none;strokeWidth=2;fontFamily=Helvetica;html=1;gradientColor=none;" vertex="1" parent="1">
          <mxGeometry x="806.2585034013605" y="625" width="127" height="50" as="geometry" />
        </mxCell>
        <mxCell id="k3MuvvShlIw28Lf7oo9o-191" value="" style="rounded=1;fillColor=#23445D;strokeColor=none;strokeWidth=2;fontFamily=Helvetica;html=1;gradientColor=none;" vertex="1" parent="1">
          <mxGeometry x="1027.4149659863945" y="625" width="127" height="50" as="geometry" />
        </mxCell>
        <mxCell id="k3MuvvShlIw28Lf7oo9o-192" value="" style="rounded=1;fillColor=#23445D;strokeColor=none;strokeWidth=2;fontFamily=Helvetica;html=1;gradientColor=none;" vertex="1" parent="1">
          <mxGeometry x="806.2585034013605" y="425" width="127" height="50" as="geometry" />
        </mxCell>
        <mxCell id="k3MuvvShlIw28Lf7oo9o-193" value="" style="rounded=1;fillColor=#23445D;strokeColor=none;strokeWidth=2;fontFamily=Helvetica;html=1;gradientColor=none;" vertex="1" parent="1">
          <mxGeometry x="1238.5714285714284" y="325" width="127" height="50" as="geometry" />
        </mxCell>
        <mxCell id="k3MuvvShlIw28Lf7oo9o-194" value="" style="rounded=1;fillColor=#23445D;strokeColor=none;strokeWidth=2;gradientColor=none;fontFamily=Helvetica;html=1;" vertex="1" parent="1">
          <mxGeometry x="1452.9251700680272" y="525" width="127" height="50" as="geometry" />
        </mxCell>
        <mxCell id="k3MuvvShlIw28Lf7oo9o-195" value="" style="rounded=1;fillColor=#23445D;strokeColor=none;strokeWidth=2;gradientColor=none;fontFamily=Helvetica;html=1;" vertex="1" parent="1">
          <mxGeometry x="1674.0816326530612" y="525" width="127" height="50" as="geometry" />
        </mxCell>
        <mxCell id="k3MuvvShlIw28Lf7oo9o-196" value="" style="rounded=1;fillColor=#23445D;strokeColor=none;strokeWidth=2;gradientColor=none;fontFamily=Helvetica;html=1;" vertex="1" parent="1">
          <mxGeometry x="1439.7278911564624" y="225" width="127" height="50" as="geometry" />
        </mxCell>
        <mxCell id="k3MuvvShlIw28Lf7oo9o-197" value="" style="rounded=1;fillColor=#23445D;strokeColor=none;strokeWidth=2;gradientColor=none;fontFamily=Helvetica;html=1;" vertex="1" parent="1">
          <mxGeometry x="1452.9251700680272" y="625" width="127" height="50" as="geometry" />
        </mxCell>
        <mxCell id="k3MuvvShlIw28Lf7oo9o-198" value="" style="rounded=1;fillColor=#23445D;strokeColor=none;strokeWidth=2;gradientColor=none;fontFamily=Helvetica;html=1;" vertex="1" parent="1">
          <mxGeometry x="1674.0816326530612" y="725" width="127" height="50" as="geometry" />
        </mxCell>
        <mxCell id="k3MuvvShlIw28Lf7oo9o-199" value="" style="rounded=1;fillColor=#23445D;strokeColor=none;strokeWidth=2;gradientColor=none;fontFamily=Helvetica;html=1;" vertex="1" parent="1">
          <mxGeometry x="1674.0816326530612" y="125" width="127" height="50" as="geometry" />
        </mxCell>
        <mxCell id="k3MuvvShlIw28Lf7oo9o-200" value="" style="edgeStyle=elbowEdgeStyle;elbow=horizontal;strokeWidth=3;strokeColor=#0C343D;fontFamily=Helvetica;html=1;rounded=0;" edge="1" parent="1" source="k3MuvvShlIw28Lf7oo9o-178" target="k3MuvvShlIw28Lf7oo9o-184">
          <mxGeometry x="6.448979591836746" y="830.5" width="131.97278911564624" height="100" as="geometry">
            <mxPoint x="-127.55102040816325" y="100" as="sourcePoint" />
            <mxPoint x="4.421768707483011" as="targetPoint" />
            <Array as="points">
              <mxPoint x="288" y="363" />
            </Array>
          </mxGeometry>
        </mxCell>
        <mxCell id="k3MuvvShlIw28Lf7oo9o-201" value="" style="edgeStyle=elbowEdgeStyle;elbow=horizontal;strokeWidth=3;strokeColor=#0C343D;fontFamily=Helvetica;html=1;rounded=0;" edge="1" parent="1" source="k3MuvvShlIw28Lf7oo9o-178" target="k3MuvvShlIw28Lf7oo9o-183">
          <mxGeometry x="6.448979591836746" y="830.5" width="131.97278911564624" height="100" as="geometry">
            <mxPoint x="-127.55102040816325" y="100" as="sourcePoint" />
            <mxPoint x="4.421768707483011" as="targetPoint" />
            <Array as="points">
              <mxPoint x="288" y="272" />
            </Array>
          </mxGeometry>
        </mxCell>
        <mxCell id="k3MuvvShlIw28Lf7oo9o-202" value="" style="edgeStyle=elbowEdgeStyle;elbow=horizontal;strokeWidth=3;strokeColor=#0C343D;fontFamily=Helvetica;html=1;rounded=0;" edge="1" parent="1" source="k3MuvvShlIw28Lf7oo9o-180" target="k3MuvvShlIw28Lf7oo9o-179">
          <mxGeometry x="6.448979591836746" y="830.5" width="131.97278911564624" height="100" as="geometry">
            <mxPoint x="-127.55102040816325" y="100" as="sourcePoint" />
            <mxPoint x="4.421768707483011" as="targetPoint" />
          </mxGeometry>
        </mxCell>
        <mxCell id="k3MuvvShlIw28Lf7oo9o-203" value="" style="edgeStyle=elbowEdgeStyle;elbow=horizontal;strokeWidth=3;strokeColor=#0C343D;fontFamily=Helvetica;html=1;rounded=0;" edge="1" parent="1" source="k3MuvvShlIw28Lf7oo9o-180" target="k3MuvvShlIw28Lf7oo9o-181">
          <mxGeometry x="6.448979591836746" y="830.5" width="131.97278911564624" height="100" as="geometry">
            <mxPoint x="-127.55102040816325" y="100" as="sourcePoint" />
            <mxPoint x="4.421768707483011" as="targetPoint" />
          </mxGeometry>
        </mxCell>
        <mxCell id="k3MuvvShlIw28Lf7oo9o-204" value="" style="edgeStyle=elbowEdgeStyle;elbow=horizontal;strokeWidth=3;strokeColor=#0C343D;fontFamily=Helvetica;html=1;rounded=0;" edge="1" parent="1" source="k3MuvvShlIw28Lf7oo9o-184" target="k3MuvvShlIw28Lf7oo9o-181">
          <mxGeometry x="6.448979591836746" y="830.5" width="131.97278911564624" height="100" as="geometry">
            <mxPoint x="-127.55102040816325" y="100" as="sourcePoint" />
            <mxPoint x="4.421768707483011" as="targetPoint" />
          </mxGeometry>
        </mxCell>
        <mxCell id="k3MuvvShlIw28Lf7oo9o-205" value="" style="edgeStyle=elbowEdgeStyle;elbow=horizontal;strokeWidth=3;strokeColor=#0C343D;fontFamily=Helvetica;html=1;rounded=0;" edge="1" parent="1" source="k3MuvvShlIw28Lf7oo9o-184" target="k3MuvvShlIw28Lf7oo9o-182">
          <mxGeometry x="6.448979591836746" y="830.5" width="131.97278911564624" height="100" as="geometry">
            <mxPoint x="-127.55102040816325" y="100" as="sourcePoint" />
            <mxPoint x="4.421768707483011" as="targetPoint" />
          </mxGeometry>
        </mxCell>
        <mxCell id="k3MuvvShlIw28Lf7oo9o-206" value="" style="edgeStyle=elbowEdgeStyle;elbow=horizontal;strokeWidth=3;strokeColor=#0C343D;fontFamily=Helvetica;html=1;rounded=0;" edge="1" parent="1" source="k3MuvvShlIw28Lf7oo9o-183" target="k3MuvvShlIw28Lf7oo9o-182">
          <mxGeometry x="6.448979591836746" y="830.5" width="131.97278911564624" height="100" as="geometry">
            <mxPoint x="-127.55102040816325" y="100" as="sourcePoint" />
            <mxPoint x="4.421768707483011" as="targetPoint" />
            <Array as="points">
              <mxPoint x="534.952380952381" y="604" />
            </Array>
          </mxGeometry>
        </mxCell>
        <mxCell id="k3MuvvShlIw28Lf7oo9o-207" value="" style="edgeStyle=elbowEdgeStyle;elbow=horizontal;strokeWidth=3;strokeColor=#0C343D;fontFamily=Helvetica;html=1;rounded=0;" edge="1" parent="1" source="k3MuvvShlIw28Lf7oo9o-179" target="k3MuvvShlIw28Lf7oo9o-185">
          <mxGeometry x="6.448979591836746" y="830.5" width="131.97278911564624" height="100" as="geometry">
            <mxPoint x="-127.55102040816325" y="100" as="sourcePoint" />
            <mxPoint x="4.421768707483011" as="targetPoint" />
          </mxGeometry>
        </mxCell>
        <mxCell id="k3MuvvShlIw28Lf7oo9o-208" value="" style="edgeStyle=elbowEdgeStyle;elbow=horizontal;strokeWidth=3;strokeColor=#0C343D;fontFamily=Helvetica;html=1;rounded=0;" edge="1" parent="1" source="k3MuvvShlIw28Lf7oo9o-181" target="k3MuvvShlIw28Lf7oo9o-192">
          <mxGeometry x="6.448979591836746" y="830.5" width="131.97278911564624" height="100" as="geometry">
            <mxPoint x="-127.55102040816325" y="100" as="sourcePoint" />
            <mxPoint x="4.421768707483011" as="targetPoint" />
          </mxGeometry>
        </mxCell>
        <mxCell id="k3MuvvShlIw28Lf7oo9o-209" value="" style="edgeStyle=elbowEdgeStyle;elbow=horizontal;strokeWidth=3;strokeColor=#0C343D;fontFamily=Helvetica;html=1;rounded=0;" edge="1" parent="1" source="k3MuvvShlIw28Lf7oo9o-192" target="k3MuvvShlIw28Lf7oo9o-188">
          <mxGeometry x="6.448979591836746" y="830.5" width="131.97278911564624" height="100" as="geometry">
            <mxPoint x="-127.55102040816325" y="100" as="sourcePoint" />
            <mxPoint x="4.421768707483011" as="targetPoint" />
          </mxGeometry>
        </mxCell>
        <mxCell id="k3MuvvShlIw28Lf7oo9o-210" value="" style="edgeStyle=elbowEdgeStyle;elbow=horizontal;strokeWidth=3;strokeColor=#0C343D;fontFamily=Helvetica;html=1;rounded=0;" edge="1" parent="1" source="k3MuvvShlIw28Lf7oo9o-179" target="k3MuvvShlIw28Lf7oo9o-186">
          <mxGeometry x="6.448979591836746" y="830.5" width="131.97278911564624" height="100" as="geometry">
            <mxPoint x="-127.55102040816325" y="100" as="sourcePoint" />
            <mxPoint x="4.421768707483011" as="targetPoint" />
          </mxGeometry>
        </mxCell>
        <mxCell id="k3MuvvShlIw28Lf7oo9o-211" value="" style="edgeStyle=elbowEdgeStyle;elbow=horizontal;strokeWidth=3;strokeColor=#0C343D;fontFamily=Helvetica;html=1;rounded=0;" edge="1" parent="1" source="k3MuvvShlIw28Lf7oo9o-182" target="k3MuvvShlIw28Lf7oo9o-190">
          <mxGeometry x="6.448979591836746" y="830.5" width="131.97278911564624" height="100" as="geometry">
            <mxPoint x="-127.55102040816325" y="100" as="sourcePoint" />
            <mxPoint x="4.421768707483011" as="targetPoint" />
            <Array as="points">
              <mxPoint x="743.4693877551019" y="600" />
            </Array>
          </mxGeometry>
        </mxCell>
        <mxCell id="k3MuvvShlIw28Lf7oo9o-212" value="" style="edgeStyle=elbowEdgeStyle;elbow=horizontal;strokeWidth=3;strokeColor=#0C343D;fontFamily=Helvetica;html=1;rounded=0;" edge="1" parent="1" source="k3MuvvShlIw28Lf7oo9o-190" target="k3MuvvShlIw28Lf7oo9o-191">
          <mxGeometry x="6.448979591836746" y="830.5" width="131.97278911564624" height="100" as="geometry">
            <mxPoint x="-127.55102040816325" y="100" as="sourcePoint" />
            <mxPoint x="4.421768707483011" as="targetPoint" />
          </mxGeometry>
        </mxCell>
        <mxCell id="k3MuvvShlIw28Lf7oo9o-213" value="" style="edgeStyle=elbowEdgeStyle;elbow=horizontal;strokeWidth=3;strokeColor=#0C343D;fontFamily=Helvetica;html=1;rounded=0;" edge="1" parent="1" source="k3MuvvShlIw28Lf7oo9o-190" target="k3MuvvShlIw28Lf7oo9o-189">
          <mxGeometry x="6.448979591836746" y="830.5" width="131.97278911564624" height="100" as="geometry">
            <mxPoint x="-127.55102040816325" y="100" as="sourcePoint" />
            <mxPoint x="4.421768707483011" as="targetPoint" />
          </mxGeometry>
        </mxCell>
        <mxCell id="k3MuvvShlIw28Lf7oo9o-214" value="" style="edgeStyle=elbowEdgeStyle;elbow=horizontal;strokeWidth=3;strokeColor=#0C343D;fontFamily=Helvetica;html=1;rounded=0;" edge="1" parent="1" source="k3MuvvShlIw28Lf7oo9o-189" target="k3MuvvShlIw28Lf7oo9o-198">
          <mxGeometry x="6.448979591836746" y="830.5" width="131.97278911564624" height="100" as="geometry">
            <mxPoint x="-127.55102040816325" y="100" as="sourcePoint" />
            <mxPoint x="4.421768707483011" as="targetPoint" />
          </mxGeometry>
        </mxCell>
        <mxCell id="k3MuvvShlIw28Lf7oo9o-215" value="" style="edgeStyle=elbowEdgeStyle;elbow=horizontal;strokeWidth=3;strokeColor=#0C343D;fontFamily=Helvetica;html=1;rounded=0;" edge="1" parent="1" source="k3MuvvShlIw28Lf7oo9o-198" target="k3MuvvShlIw28Lf7oo9o-187">
          <mxGeometry x="6.448979591836746" y="830.5" width="131.97278911564624" height="100" as="geometry">
            <mxPoint x="-127.55102040816325" y="100" as="sourcePoint" />
            <mxPoint x="4.421768707483011" as="targetPoint" />
          </mxGeometry>
        </mxCell>
        <mxCell id="k3MuvvShlIw28Lf7oo9o-216" value="" style="edgeStyle=elbowEdgeStyle;elbow=horizontal;strokeWidth=3;strokeColor=#0C343D;fontFamily=Helvetica;html=1;rounded=0;" edge="1" parent="1" source="k3MuvvShlIw28Lf7oo9o-196" target="k3MuvvShlIw28Lf7oo9o-187">
          <mxGeometry x="6.448979591836746" y="830.5" width="131.97278911564624" height="100" as="geometry">
            <mxPoint x="-127.55102040816325" y="100" as="sourcePoint" />
            <mxPoint x="4.421768707483011" as="targetPoint" />
            <Array as="points">
              <mxPoint x="1642" y="450" />
            </Array>
          </mxGeometry>
        </mxCell>
        <mxCell id="k3MuvvShlIw28Lf7oo9o-217" value="" style="edgeStyle=elbowEdgeStyle;elbow=horizontal;strokeWidth=3;strokeColor=#0C343D;fontFamily=Helvetica;html=1;rounded=0;" edge="1" parent="1" source="k3MuvvShlIw28Lf7oo9o-197" target="k3MuvvShlIw28Lf7oo9o-198">
          <mxGeometry x="6.448979591836746" y="830.5" width="131.97278911564624" height="100" as="geometry">
            <mxPoint x="-127.55102040816325" y="100" as="sourcePoint" />
            <mxPoint x="4.421768707483011" as="targetPoint" />
          </mxGeometry>
        </mxCell>
        <mxCell id="k3MuvvShlIw28Lf7oo9o-218" value="" style="edgeStyle=elbowEdgeStyle;elbow=horizontal;strokeWidth=3;strokeColor=#0C343D;fontFamily=Helvetica;html=1;rounded=0;" edge="1" parent="1" source="k3MuvvShlIw28Lf7oo9o-191" target="k3MuvvShlIw28Lf7oo9o-194">
          <mxGeometry x="6.448979591836746" y="830.5" width="131.97278911564624" height="100" as="geometry">
            <mxPoint x="-127.55102040816325" y="100" as="sourcePoint" />
            <mxPoint x="4.421768707483011" as="targetPoint" />
          </mxGeometry>
        </mxCell>
        <mxCell id="k3MuvvShlIw28Lf7oo9o-219" value="" style="edgeStyle=elbowEdgeStyle;elbow=horizontal;strokeWidth=3;strokeColor=#0C343D;fontFamily=Helvetica;html=1;rounded=0;" edge="1" parent="1" source="k3MuvvShlIw28Lf7oo9o-191" target="k3MuvvShlIw28Lf7oo9o-197">
          <mxGeometry x="6.448979591836746" y="830.5" width="131.97278911564624" height="100" as="geometry">
            <mxPoint x="-127.55102040816325" y="100" as="sourcePoint" />
            <mxPoint x="4.421768707483011" as="targetPoint" />
          </mxGeometry>
        </mxCell>
        <mxCell id="k3MuvvShlIw28Lf7oo9o-220" value="" style="edgeStyle=elbowEdgeStyle;elbow=horizontal;strokeWidth=3;strokeColor=#0C343D;fontFamily=Helvetica;html=1;rounded=0;" edge="1" parent="1" source="k3MuvvShlIw28Lf7oo9o-188" target="k3MuvvShlIw28Lf7oo9o-193">
          <mxGeometry x="6.448979591836746" y="830.5" width="131.97278911564624" height="100" as="geometry">
            <mxPoint x="-127.55102040816325" y="100" as="sourcePoint" />
            <mxPoint x="4.421768707483011" as="targetPoint" />
          </mxGeometry>
        </mxCell>
        <mxCell id="k3MuvvShlIw28Lf7oo9o-221" value="" style="edgeStyle=elbowEdgeStyle;elbow=horizontal;strokeWidth=3;strokeColor=#0C343D;fontFamily=Helvetica;html=1;rounded=0;" edge="1" parent="1" source="k3MuvvShlIw28Lf7oo9o-185" target="k3MuvvShlIw28Lf7oo9o-196">
          <mxGeometry x="6.448979591836746" y="830.5" width="131.97278911564624" height="100" as="geometry">
            <mxPoint x="-127.55102040816325" y="100" as="sourcePoint" />
            <mxPoint x="4.421768707483011" as="targetPoint" />
          </mxGeometry>
        </mxCell>
        <mxCell id="k3MuvvShlIw28Lf7oo9o-222" value="" style="edgeStyle=elbowEdgeStyle;elbow=horizontal;strokeWidth=3;strokeColor=#0C343D;fontFamily=Helvetica;html=1;rounded=0;" edge="1" parent="1" source="k3MuvvShlIw28Lf7oo9o-186" target="k3MuvvShlIw28Lf7oo9o-196">
          <mxGeometry x="6.448979591836746" y="830.5" width="131.97278911564624" height="100" as="geometry">
            <mxPoint x="-127.55102040816325" y="100" as="sourcePoint" />
            <mxPoint x="4.421768707483011" as="targetPoint" />
            <Array as="points">
              <mxPoint x="1390.1360544217687" y="200" />
            </Array>
          </mxGeometry>
        </mxCell>
        <mxCell id="k3MuvvShlIw28Lf7oo9o-223" value="" style="edgeStyle=elbowEdgeStyle;elbow=horizontal;strokeWidth=3;strokeColor=#0C343D;fontFamily=Helvetica;html=1;rounded=0;" edge="1" parent="1" source="k3MuvvShlIw28Lf7oo9o-186" target="k3MuvvShlIw28Lf7oo9o-199">
          <mxGeometry x="6.448979591836746" y="830.5" width="131.97278911564624" height="100" as="geometry">
            <mxPoint x="-127.55102040816325" y="100" as="sourcePoint" />
            <mxPoint x="4.421768707483011" as="targetPoint" />
          </mxGeometry>
        </mxCell>
        <mxCell id="k3MuvvShlIw28Lf7oo9o-224" value="" style="edgeStyle=elbowEdgeStyle;elbow=horizontal;strokeWidth=3;strokeColor=#0C343D;fontFamily=Helvetica;html=1;rounded=0;" edge="1" parent="1" source="k3MuvvShlIw28Lf7oo9o-199" target="k3MuvvShlIw28Lf7oo9o-187">
          <mxGeometry x="6.448979591836746" y="830.5" width="131.97278911564624" height="100" as="geometry">
            <mxPoint x="-127.55102040816325" y="100" as="sourcePoint" />
            <mxPoint x="4.421768707483011" as="targetPoint" />
          </mxGeometry>
        </mxCell>
        <mxCell id="k3MuvvShlIw28Lf7oo9o-225" value="" style="edgeStyle=elbowEdgeStyle;elbow=horizontal;strokeWidth=3;strokeColor=#0C343D;fontFamily=Helvetica;html=1;rounded=0;" edge="1" parent="1" source="k3MuvvShlIw28Lf7oo9o-195" target="k3MuvvShlIw28Lf7oo9o-187">
          <mxGeometry x="6.448979591836746" y="830.5" width="131.97278911564624" height="100" as="geometry">
            <mxPoint x="-127.55102040816325" y="100" as="sourcePoint" />
            <mxPoint x="4.421768707483011" as="targetPoint" />
          </mxGeometry>
        </mxCell>
        <mxCell id="k3MuvvShlIw28Lf7oo9o-226" value="" style="edgeStyle=elbowEdgeStyle;elbow=horizontal;strokeWidth=3;strokeColor=#0C343D;fontFamily=Helvetica;html=1;rounded=0;" edge="1" parent="1" source="k3MuvvShlIw28Lf7oo9o-194" target="k3MuvvShlIw28Lf7oo9o-195">
          <mxGeometry x="6.448979591836746" y="830.5" width="131.97278911564624" height="100" as="geometry">
            <mxPoint x="-127.55102040816325" y="100" as="sourcePoint" />
            <mxPoint x="4.421768707483011" as="targetPoint" />
          </mxGeometry>
        </mxCell>
        <mxCell id="k3MuvvShlIw28Lf7oo9o-227" value="" style="edgeStyle=elbowEdgeStyle;elbow=horizontal;strokeWidth=3;strokeColor=#0C343D;fontFamily=Helvetica;html=1;rounded=0;" edge="1" parent="1" source="k3MuvvShlIw28Lf7oo9o-193" target="k3MuvvShlIw28Lf7oo9o-194">
          <mxGeometry x="6.448979591836746" y="830.5" width="131.97278911564624" height="100" as="geometry">
            <mxPoint x="-127.55102040816325" y="100" as="sourcePoint" />
            <mxPoint x="4.421768707483011" as="targetPoint" />
            <Array as="points">
              <mxPoint x="1390.1360544217687" y="450" />
            </Array>
          </mxGeometry>
        </mxCell>
        <mxCell id="k3MuvvShlIw28Lf7oo9o-228" value="" style="group" vertex="1" connectable="0" parent="1">
          <mxGeometry x="110" y="60" width="646.6666666666666" height="40" as="geometry" />
        </mxCell>
        <mxCell id="k3MuvvShlIw28Lf7oo9o-229" value="Milestone 1" style="strokeColor=#BAC8D3;fillColor=#5d7f99;fontSize=19;strokeWidth=2;fontFamily=Helvetica;html=1;labelBackgroundColor=none;fontColor=#FFFFFF;" vertex="1" parent="k3MuvvShlIw28Lf7oo9o-228">
          <mxGeometry width="646.6656362699642" height="40" as="geometry" />
        </mxCell>
        <mxCell id="k3MuvvShlIw28Lf7oo9o-230" value="Milestone 2" style="strokeColor=#BAC8D3;fillColor=#5d7f99;fontSize=19;strokeWidth=2;fontFamily=Helvetica;html=1;labelBackgroundColor=none;fontColor=#FFFFFF;" vertex="1" parent="k3MuvvShlIw28Lf7oo9o-228">
          <mxGeometry x="646.6656362699642" width="646.6656362699642" height="40" as="geometry" />
        </mxCell>
        <mxCell id="k3MuvvShlIw28Lf7oo9o-231" value="Milestone 3" style="strokeColor=#BAC8D3;fillColor=#5d7f99;fontSize=19;strokeWidth=2;fontFamily=Helvetica;html=1;labelBackgroundColor=none;fontColor=#FFFFFF;" vertex="1" parent="k3MuvvShlIw28Lf7oo9o-228">
          <mxGeometry x="1293.3312725399282" width="646.6666666666666" height="40" as="geometry" />
        </mxCell>
      </root>
    </mxGraphModel>
  </diagram>
</mxfile>
